<?xml version="1.0" encoding="utf-8"?>
<svg viewBox="0 0 64 64" enable-background="new 0 0 64 64" xmlns="http://www.w3.org/2000/svg">
  <path d="M 52 22.547 C 52 11.199 43.156 2 32.248 2 C 21.338 2 12.496 11.199 12.496 22.547 C 12.496 33.314 20.461 45.581 30.597 46.806 C 29.886 46.985 29.948 48.043 30.801 48.043 C 30.553 48.043 30.307 48.043 30.059 48.043 C 28.659 48.043 28.659 49.955 30.059 49.955 C 30.548 49.955 30.349 49.955 30.838 49.955 C 30.736 51.569 29.695 52.626 28.407 53.693 C 26.268 55.461 22.486 54.28 22.311 54.987 C 22.028 56.132 22.806 57.654 25.605 57.806 C 28.812 57.978 32.794 55.432 33.706 52.137 C 33.852 51.608 33.694 50.738 33.727 49.973 C 34.19 49.973 33.939 49.956 34.401 49.956 C 35.801 49.956 35.801 48.044 34.401 48.044 C 34.167 48.044 33.932 48.044 33.698 48.044 C 34.552 48.044 34.614 46.985 33.901 46.807 C 44.034 45.581 52 33.313 52 22.547" style="fill: rgb(238, 165, 55);"/>
  <path d="M 16.967 24.316 C 16.098 23.219 17.172 13.918 22.43 9.902 C 27.627 5.932 36.775 5.314 36.682 7.485 C 36.643 8.395 30.295 10.509 26.365 14.073 C 22.705 17.392 17.871 25.459 16.967 24.316 Z" style="fill: rgb(255, 255, 255);"/>
</svg>