<?xml version="1.0" encoding="utf-8"?>
<svg viewBox="0 0 100 125" xmlns="http://www.w3.org/2000/svg">
  <path d="M 93.733 62.529 L 94.498 62.751 L 94.498 62.751 L 59.976 56.762 L 23.292 24.029 L 49.535 3.994 L 78.368 18.826 L 94.195 61.969 L 93.733 62.529 Z" id="path3570" style="fill-opacity: 1; fill-rule: evenodd; stroke: rgb(0, 0, 0); stroke-linecap: butt; stroke-linejoin: miter; stroke-miterlimit: 4; stroke-dasharray: none; stroke-opacity: 1; fill: rgb(179, 141, 129);"/>
  <path d="M 24.05 24.786 L 22.808 24.658 L 6.681 90.702 L 13.487 111.451 L 35.964 120.715 L 36.873 121.09 L 54.332 102.757 L 59.337 56.631 L 24.05 24.786 Z" id="path3572" style="fill-opacity: 1; fill-rule: evenodd; stroke: rgb(0, 0, 0); stroke-linecap: butt; stroke-linejoin: miter; stroke-miterlimit: 4; stroke-dasharray: none; stroke-opacity: 1; fill: rgb(133, 98, 98);"/>
  <path d="M 93.961 62.651 L 68.143 117.839 L 67.238 119.716 L 65.458 119.744 L 54.614 102.757 L 59.411 56.48 L 93.961 62.651 Z" id="path3574" style="fill-opacity: 1; fill-rule: evenodd; stroke: rgb(0, 0, 0); stroke-linecap: butt; stroke-linejoin: miter; stroke-miterlimit: 4; stroke-dasharray: none; stroke-opacity: 1; fill: rgb(90, 62, 51);"/>
  <path d="M 66.42 119.761 L 37.217 121.281 L 37.118 121.099 L 37.118 121.099 L 54.896 102.475 L 66.42 119.761 Z" id="path3576" style="fill-opacity: 1; fill-rule: evenodd; stroke: rgb(0, 0, 0); stroke-linecap: butt; stroke-linejoin: miter; stroke-miterlimit: 4; stroke-dasharray: none; stroke-opacity: 1; fill: rgb(51, 38, 38);"/>
</svg>