<?xml version="1.0" encoding="utf-8"?>
<svg viewBox="0 0 128 128" xmlns="http://www.w3.org/2000/svg">
  <path d="M 32 0 L 96 0 L 112 16 L 112 112 L 96 128 L 32 128 L 16 112 L 16 75.25 L 16 16 L 32 0 Z" style="fill: rgb(255, 69, 50);"/>
  <path style="stroke: rgb(0, 0, 0); stroke-width: 5px; fill: rgb(255, 255, 255);" d="M 43.784 87.666 C 43.784 84.039 83.921 83.591 83.921 87.218 L 95.606 103.703 C 95.606 107.33 92.665 110.271 89.038 110.271 L 38.741 110.271 C 35.114 110.271 32.173 107.33 32.173 103.703 L 43.784 87.666 Z"/>
  <line style="stroke: rgb(0, 0, 0); stroke-width: 6px; stroke-linecap: round;" x1="27.361" y1="66.443" x2="59.025" y2="32.361"/>
  <line style="stroke: rgb(0, 0, 0); stroke-width: 6px; stroke-linecap: round;" x1="28.064" y1="30.75" x2="60.308" y2="65.645" transform="matrix(-1, 0, 0, -1, 88.417999, 96.27)"/>
  <line style="stroke: rgb(0, 0, 0); stroke-linecap: round; stroke-width: 5px;" x1="74.43" y1="34.922" x2="97.169" y2="60.704" transform="matrix(-1, 0, 0, -1, 171.598999, 95.625999)"/>
  <line style="stroke: rgb(0, 0, 0); stroke-linecap: round; stroke-width: 5px;" x1="75.684" y1="60.46" x2="98.499" y2="36.701"/>
</svg>